<?xml version="1.0" encoding="UTF-8" standalone="no"?> <!-- Created with Vectornator (http://vectornator.io/) --><!DOCTYPE svg PUBLIC "-//W3C//DTD SVG 1.1//EN" "http://www.w3.org/Graphics/SVG/1.1/DTD/svg11.dtd">
<svg height="100%" stroke-miterlimit="10" style="fill-rule:nonzero;clip-rule:evenodd;stroke-linecap:round;stroke-linejoin:round;" version="1.1" viewBox="0 0 1024 1024" width="100%" xml:space="preserve" xmlns="http://www.w3.org/2000/svg" xmlns:vectornator="http://vectornator.io" xmlns:xlink="http://www.w3.org/1999/xlink">
<metadata>
<vectornator:setting key="IsTimeLapseWatermarkDisabled" value="false"/>
<vectornator:setting key="UndoHistoryDisabled" value="true"/>
<vectornator:setting key="VNDimensionsVisible" value="true"/>
<vectornator:setting key="VNSnapToGuides" value="true"/>
<vectornator:setting key="WDCMYKEnabledKey" value="false"/>
<vectornator:setting key="WDDisplayWhiteBackground" value="false"/>
<vectornator:setting key="WDDynamicGuides" value="false"/>
<vectornator:setting key="WDGuidesVisible" value="true"/>
<vectornator:setting key="WDIsolateActiveLayer" value="false"/>
<vectornator:setting key="WDOutlineMode" value="false"/>
<vectornator:setting key="WDRulersVisible" value="true"/>
<vectornator:setting key="WDSnapToEdges" value="false"/>
<vectornator:setting key="WDSnapToGrid" value="false"/>
<vectornator:setting key="WDSnapToPoints" value="false"/>
<vectornator:setting key="WDUnits" value="Pixels"/>
</metadata>
<defs/>
<g id="Layer-1" vectornator:layerName="Layer 1">
<path d="M131.438 836.739C128.889 834.191 125.793 832.253 123.069 829.892C116.268 823.997 111.347 816.85 105.57 810.111C97.1855 800.329 87.0047 792.039 78.9421 781.961C70.4453 771.34 64.7727 758.487 57.6395 746.964C51.5664 737.154 38.0854 712.912 47.749 701.315C57.9135 689.118 81.3639 687.883 95.6799 686.86C113.389 685.595 131.201 685.235 148.936 684.578C157.87 684.247 166.61 683.056 175.565 683.056C178.608 683.056 181.651 683.056 184.694 683.056C187.23 683.056 189.766 683.056 192.302 683.056C195.103 683.056 214.767 685.019 212.083 676.97C207.359 662.796 192.569 653.877 182.412 644.255C177.718 639.808 173.804 634.605 169.478 629.799C164.674 624.461 158.702 620.297 153.501 615.344C145.622 607.84 138.952 598.871 131.438 590.998C126.631 585.962 118.086 578.13 113.939 572.739C104.214 560.096 96.5587 545.472 87.311 532.416C80.1844 522.355 75.2927 512.183 69.8124 501.223C67.3848 496.368 64.3023 491.803 62.2044 486.768C60.0962 481.708 58.3551 474.971 61.4436 470.03C67.1852 460.843 89.9775 462.042 98.7231 463.943C116.117 467.725 131.871 476.321 148.176 482.964C161.769 488.502 175.629 493.488 189.259 498.941C200.064 503.262 210.133 509.276 221.974 510.353C222.76 510.424 230.301 511.349 229.582 508.831C227.909 502.976 217.346 494.254 213.605 489.811C209.12 484.484 206.056 478.106 202.193 472.312C197.6 465.423 191.472 459.69 186.216 453.292C177.727 442.958 170.594 431.516 161.87 421.338C155.908 414.382 149.367 407.923 143.611 400.796C138.128 394.008 133.555 386.531 128.395 379.494C122.443 371.378 116.304 365.691 111.657 356.669C103.384 340.611 99.0733 322.723 93.3975 305.695C85.1615 280.988 81.5886 253.085 97.2015 230.375C98.9203 227.875 103.473 222.879 106.331 221.246C121.013 212.856 135.727 222.317 148.176 229.615C155.945 234.169 163.879 238.557 171 244.07C204.275 269.831 235.326 299.108 263.058 330.802C271.612 340.579 279.222 351.144 287.403 361.234C290.921 365.573 294.785 369.64 298.055 374.168C301.391 378.788 303.786 384.049 307.184 388.623C313.42 397.017 320.914 404.442 326.965 412.969C336.096 425.835 343.93 439.857 354.355 451.77C355.772 453.39 357.398 454.814 358.919 456.335C359.826 457.242 365.427 463.522 367.288 461.661C368.927 460.023 368.049 451.81 368.049 450.249C368.049 447.206 368.166 444.16 368.049 441.119C367.296 421.548 364.355 402.131 363.484 382.537C362.022 349.634 364.224 317.247 365.006 284.393C365.711 254.778 364.54 224.853 368.049 195.378C369.743 181.153 371.461 152.102 387.069 145.165C403.956 137.66 422.854 163.708 429.675 174.836C432.224 178.996 434.114 183.528 436.522 187.77C442.599 198.478 450.194 208.273 456.303 218.963C462.324 229.5 466.649 240.928 472.28 251.678C477.668 261.965 484.64 271.346 490.539 281.35C496.3 291.119 499.994 302.013 505.755 311.782C513.885 325.568 523.49 337.795 530.862 352.105C537.92 365.806 546.564 379.177 556.729 390.906C560.164 394.869 564.974 401.138 571.185 399.275C580.189 396.573 584.279 386.42 587.162 378.733C593.369 362.181 596.437 346.017 601.617 329.28C607.269 311.021 615.341 293.827 622.159 276.024C626.522 264.631 629.934 252.842 635.093 241.788C640.322 230.581 647.061 220.134 652.591 209.073C660.098 194.059 666.171 178.728 674.655 164.185C679.41 156.033 684.653 148.159 689.11 139.839C692.801 132.949 694.596 127.819 699 121.58C701.615 117.875 703.698 115.18 708.13 113.972C719.498 110.871 719.652 132.785 720.303 139.078C722.54 160.705 722.586 182.804 722.586 204.508C722.586 264.615 721.825 324.733 721.825 384.819C721.825 403.694 720.571 423.074 722.586 441.88C723.314 448.681 724.767 456.565 728.672 462.422C732.88 468.733 743.255 461.862 746.931 458.618C755.172 451.346 759.628 440.722 765.952 431.989C768.809 428.044 772.238 424.533 775.081 420.577C784.785 407.076 792.556 392.079 802.47 378.733C808.802 370.209 816.722 362.942 823.012 354.387C826.054 350.25 828.237 345.514 831.381 341.453C837.309 333.796 845.223 327.903 851.923 320.912C854.417 318.309 856.291 315.159 858.77 312.543C865.152 305.806 877.377 297.661 886.159 294.283C888.555 293.362 894.177 291.265 896.81 293.522C900.529 296.709 900.615 306.167 900.615 310.26C900.615 314.073 900.246 317.88 899.854 321.672C898.633 333.47 894.768 344.378 892.246 355.909C890.47 364.024 888.935 372.195 886.92 380.255C879.218 411.062 865.544 440.284 859.531 471.551C857.344 482.923 854.403 494.323 852.684 505.788C851.237 515.433 849.529 525.722 848.88 535.459C848.503 541.101 848.647 546.613 847.358 552.197C845.545 560.055 842.078 567.261 839.75 575.021C838.319 579.791 837.927 584.853 835.946 589.477C833.371 595.484 828.99 600.345 826.055 606.214" fill="#dfd03e" fill-rule="evenodd" opacity="1" stroke="#000000" stroke-linecap="round" stroke-linejoin="round" stroke-width="35.2603"/>
<path d="M1126.2 650.426C1126.2 648.792 1126.2 647.158 1126.2 645.524" fill="none" fill-rule="evenodd" opacity="1" stroke="#000000" stroke-linecap="round" stroke-linejoin="round" stroke-width="10"/>
<path d="M148.461 1007.94C139.206 989.426 129.264 970.942 127.323 949.595C125.852 933.406 125.152 915.802 128.169 899.71C129.884 890.564 134.225 882.152 137.469 873.499C143.504 857.406 150.126 840.235 160.298 826.151C166.091 818.13 174.218 811.735 180.591 804.167C187 796.556 193.024 786.78 200.883 780.493C207.18 775.455 211.854 773.051 217.793 767.81C222.727 763.457 226.404 757.808 231.321 753.437C239.234 746.403 249.216 741.401 257.532 734.836C266.678 727.615 275.764 721.136 285.434 714.543C294.629 708.274 303.789 701.67 313.336 695.942C316.904 693.801 320.865 692.332 324.327 690.024C331.224 685.426 337.261 679.465 344.62 675.65C348.43 673.674 352.646 672.553 356.457 670.577C375.21 660.853 392.933 647.883 412.26 639.293C416.333 637.483 420.776 636.646 424.943 635.065C447.945 626.341 469.852 614.339 493.429 607.164C509.252 602.348 525.508 597.354 541.623 593.635C553.064 590.995 564.82 589.518 576.289 586.871C638.365 572.546 704.523 566.752 768.22 571.652C794.98 573.711 819.433 577.676 845.162 585.18C866.194 591.315 888.529 596.361 908.575 605.472C936.407 618.123 966.89 643.146 984.671 668.04" fill="none" fill-rule="evenodd" opacity="1" stroke="#000000" stroke-linecap="round" stroke-linejoin="round" stroke-width="10"/>
<path d="M267.735 870.279C286.336 896.32 299.261 925.209 315.929 952.293C323.069 963.896 329.159 980.183 340.449 988.65" fill="none" fill-rule="evenodd" opacity="1" stroke="#000000" stroke-linecap="round" stroke-linejoin="round" stroke-width="10"/>
<path d="M460.511 817.857C468.798 841.06 475.473 865.067 484.185 888.034C490.092 903.606 497.856 918.41 504.478 933.692C510.454 947.483 515.522 961.7 522.233 975.122" fill="none" fill-rule="evenodd" opacity="1" stroke="#000000" stroke-linecap="round" stroke-linejoin="round" stroke-width="10"/>
<path d="M658.36 740.07C665.957 774.256 680.041 805.917 691.335 838.995C693.987 846.762 695.619 854.846 698.099 862.669C704.089 881.56 713.594 898.863 721.774 916.782C731.151 937.322 738.37 960.434 754.749 976.813" fill="none" fill-rule="evenodd" opacity="1" stroke="#000000" stroke-linecap="round" stroke-linejoin="round" stroke-width="10"/>
<path d="M917.087 717.241C922.842 757.528 932.611 796.25 942.452 835.613C946.547 851.993 950.192 868.507 955.135 884.652C960.528 902.272 968.59 919.137 975.427 936.228" fill="none" fill-rule="evenodd" opacity="1" stroke="#000000" stroke-linecap="round" stroke-linejoin="round" stroke-width="10"/>
<g opacity="1">
<path d="M321.027 697.352C302.702 697.352 295.865 690.578 282.226 679.092C280.163 677.356 277.839 675.859 276.139 673.766C268.979 664.954 266.778 651.372 263.205 641.052C259.589 630.604 255.46 621.085 254.836 609.859C253.698 589.375 259.616 570.57 265.488 551.276C267.243 545.51 267.856 539.391 270.053 533.778C272.575 527.332 276.382 521.454 279.943 515.518C285.253 506.669 292.44 499.625 298.202 491.173C300.187 488.262 301.492 484.918 303.528 482.043C310.148 472.697 318.72 466.68 327.113 459.219C329.258 457.313 330.935 454.894 333.2 453.132C338.762 448.806 345.341 445.977 351.459 442.481C369.739 432.035 388.985 423.934 409.28 418.135C422.974 414.223 437.267 412.633 451.125 409.766C458.292 408.283 465.208 405.644 472.427 404.441C491.998 401.179 512.752 401.397 532.531 401.397C543.338 401.397 553.836 400.789 564.485 402.919C573.045 404.631 583.001 405.625 591.113 409.005C600.376 412.865 610.951 418.534 619.263 424.222C624.036 427.487 628.041 431.829 632.958 434.873C639.076 438.66 644.97 440.586 650.456 445.524C661.149 455.148 667.477 471.852 674.042 484.325C681.451 498.403 686.22 511.776 687.736 527.691C688.058 531.073 689.093 538.569 688.497 542.147C687.126 550.371 682.821 561.458 680.128 569.536" fill="#f7f6ec" fill-rule="evenodd" stroke="none"/>
<path d="M530.062 399.812C511.569 399.686 492.943 399.458 474.594 402.125C471.289 402.605 468.018 403.268 464.781 404.094C460.085 405.292 455.446 406.769 450.688 407.719C437.859 410.28 424.83 411.729 412.125 414.906C406.239 416.378 400.434 418.18 394.688 420.125C383.426 423.937 372.426 428.515 361.781 433.812C357.83 435.779 353.934 437.883 350.062 440C344.302 443.15 338.254 445.825 332.875 449.625C331.859 450.343 330.981 451.014 330.062 451.844C328.602 453.163 327.362 454.677 325.969 456.062C325.028 456.999 323.979 457.86 322.969 458.719C315.882 464.745 308.442 470.406 302.594 477.719C301.558 479.014 300.57 480.344 299.688 481.75C298.426 483.758 297.418 485.912 296.188 487.938C295.075 489.769 293.74 491.487 292.438 493.188C288.844 497.879 284.883 502.296 281.344 507.031C279.047 510.105 277.066 513.326 275.062 516.594C271.373 522.611 267.619 528.73 265.469 535.5C263.817 540.699 263.011 546.136 261.375 551.344C256.309 567.471 251.306 583.833 250.594 600.844C250.423 604.918 250.418 609.034 250.844 613.094C252.109 625.166 257.381 636.157 260.75 647.688C263.37 656.654 265.538 666.051 270.781 673.938C271.704 675.325 272.683 676.675 273.844 677.875C275.232 679.309 276.854 680.476 278.406 681.719C279.842 682.868 281.223 684.091 282.625 685.281C287.848 689.716 293.141 694.234 299.312 697.312C306.095 700.697 313.486 701.834 321 701.906C323.513 701.925 325.544 699.888 325.562 697.375C325.581 694.862 323.575 692.831 321.062 692.812C315.423 692.785 309.803 692.126 304.594 689.844C298.513 687.18 293.404 682.699 288.375 678.469C286.902 677.23 285.445 675.947 283.938 674.75C282.677 673.75 281.35 672.84 280.219 671.688C279.139 670.587 278.24 669.247 277.438 667.938C272.943 660.608 271.142 651.942 268.656 643.812C265.441 633.298 260.511 623.228 259.281 612.188C258.787 607.75 258.802 603.201 259.062 598.75C259.917 584.133 264.038 570.001 268.156 556.031C268.965 553.289 269.755 550.574 270.375 547.781C271.319 543.531 272.023 539.195 273.531 535.094C275.049 530.966 277.247 527.093 279.469 523.312C281.047 520.627 282.613 517.924 284.312 515.312C288.418 509.005 293.545 503.432 298.031 497.406C299.464 495.482 300.916 493.511 302.125 491.438C303.301 489.421 304.234 487.282 305.438 485.281C306.161 484.079 306.988 482.955 307.844 481.844C313.293 474.768 320.367 469.262 327.031 463.406C328.348 462.25 329.678 461.094 330.875 459.812C332.246 458.345 333.49 456.765 335.062 455.5C338.127 453.035 341.618 451.12 345.062 449.25C348.058 447.625 351.047 446.013 354 444.312C366.719 436.987 380.087 430.75 393.875 425.719C400.261 423.388 406.739 421.243 413.312 419.5C425.894 416.164 438.847 414.527 451.562 411.812C456.38 410.784 461.029 409.246 465.781 407.969C468.873 407.138 471.995 406.469 475.156 405.969C493.286 403.098 511.755 403.107 530.062 403C540.555 402.938 551.177 402.206 561.594 403.812C565.077 404.35 568.553 405.052 572.031 405.625C577.619 406.545 583.267 407.455 588.625 409.344C593.848 411.185 598.912 413.721 603.812 416.281C609.312 419.154 614.813 422.229 619.844 425.875C623.363 428.426 626.496 431.471 630.031 434C634.535 437.222 639.676 439.29 644.406 442.125C646.873 443.604 649.155 445.306 651.219 447.312C654.783 450.779 657.691 454.868 660.281 459.094C664.013 465.182 667.081 471.642 670.25 478.031C673.614 484.813 677.304 491.412 680.156 498.438C682.736 504.79 684.743 511.363 686.062 518.094C686.747 521.586 687.199 525.123 687.594 528.656C688.016 532.441 688.597 536.246 688.5 540.062C688.406 543.771 687.248 547.527 686.219 551.062C684.407 557.284 682.166 563.384 680.125 569.531C682.372 563.019 684.843 556.584 686.781 549.969C687.714 546.784 688.72 543.433 688.844 540.094C688.986 536.26 688.442 532.401 688.062 528.594C687.708 525.04 687.334 521.515 686.688 518C685.439 511.208 683.459 504.551 680.938 498.125C677.929 490.458 673.984 483.233 670.438 475.812C665.515 465.513 660.511 454.379 652.312 446.219C650.184 444.1 647.836 442.26 645.281 440.688C640.631 437.825 635.515 435.742 631.094 432.5C627.59 429.931 624.519 426.841 621.031 424.25C615.961 420.484 610.399 417.298 604.844 414.312C599.875 411.642 594.773 409.006 589.469 407.062C583.995 405.057 578.189 404.017 572.469 403C568.988 402.381 565.517 401.646 562.031 401.062C551.482 399.298 540.711 399.885 530.062 399.812Z" fill="#000000" stroke="none"/>
</g>
<g opacity="1">
<path d="M558.399 397.593C568.074 384.692 581.448 377.587 592.635 366.4C602.501 356.534 611.81 346.694 623.067 338.25C629.454 333.46 636.533 329.385 642.848 324.556C649.255 319.656 655.208 313.919 661.869 309.34C666.172 306.381 671.26 304.69 675.563 301.731C679.711 298.88 682.948 294.861 686.975 291.841C692.452 287.734 700.267 284.76 706.756 282.711C709.658 281.795 718.167 279.667 721.212 282.711C723.084 284.583 723.081 287.704 723.494 290.319C724.325 295.58 723.494 300.971 723.494 306.296C723.494 319.694 720.898 331.972 718.929 345.098C717.29 356.025 715.325 366.909 713.604 377.812C712.367 385.645 711.698 393.039 709.039 400.636C704.688 413.066 699.187 425.289 695.344 437.916C689.958 455.615 687.88 475.118 677.846 491.173C676.124 493.928 670.127 499.652 667.955 501.824" fill="#f7f6ec" fill-rule="evenodd" stroke="none"/>
<path d="M715.281 278.5C712.131 278.543 708.946 279.174 705.938 280.094C699.007 282.212 691.913 284.722 685.906 288.875C681.834 291.691 678.62 295.503 674.625 298.406C670.076 301.713 664.545 303.316 659.875 306.438C653.065 310.989 647.248 316.801 640.625 321.594C633.143 327.008 625.053 331.514 617.75 337.188C611.268 342.224 605.262 347.82 599.406 353.562C595.217 357.67 591.181 361.952 586.844 365.906C580.241 371.927 572.844 377.022 566.125 382.906C561.979 386.537 558.204 390.468 554.812 394.812C553.274 396.799 553.638 399.649 555.625 401.188C557.612 402.726 560.462 402.362 562 400.375C564.634 396.945 567.509 393.778 570.688 390.844C577.749 384.325 585.72 378.9 592.75 372.344C596.285 369.047 599.605 365.502 603 362.062C608.552 356.438 614.18 350.856 620.219 345.75C628.09 339.095 636.928 333.831 645.062 327.531C651.445 322.588 657.241 316.915 663.844 312.25C668.107 309.238 673.087 307.423 677.375 304.438C681.585 301.506 684.855 297.45 688.844 294.25C691.012 292.511 693.516 291.122 696 289.906C699.222 288.329 702.579 287.043 705.969 285.875C709.021 284.823 712.191 283.892 715.438 283.75C716.615 283.698 717.979 283.716 719.062 284.281C720.276 284.914 720.506 286.776 720.688 287.938C721.222 291.352 721.562 294.724 721.469 298.188C721.421 299.974 721.321 301.775 721.281 303.562C721.189 307.714 721.25 311.823 720.938 315.969C720.333 323.999 719.059 331.947 717.875 339.906C716.075 352.01 714.215 364.117 712.406 376.219C711.393 382.999 710.805 389.883 709.062 396.531C707.625 402.017 705.463 407.355 703.469 412.656C700.079 421.664 696.571 430.652 694 439.938C689.221 457.195 687.105 475.48 677.719 491.094C676.718 492.758 675.312 494.209 674 495.625C672.041 497.739 669.997 499.765 667.969 501.812C670.208 499.644 672.445 497.508 674.594 495.25C675.782 494.002 677.045 492.715 677.969 491.25C687.707 475.8 690.223 457.54 695.375 440.344C698.285 430.63 702.218 421.252 705.969 411.844C707.894 407.016 709.946 402.159 711.375 397.156C713.41 390.027 714.21 382.602 715.469 375.312C716.565 368.962 717.729 362.628 718.844 356.281C719.955 349.957 720.961 343.607 722.062 337.281C723.273 330.327 724.495 323.372 725.188 316.344C725.602 312.132 725.612 307.94 725.812 303.719C725.963 300.554 726.309 297.391 726.25 294.219C726.22 292.573 726.044 290.944 725.844 289.312C725.408 285.772 725.02 281.844 721.625 279.844C719.74 278.733 717.423 278.471 715.281 278.5Z" fill="#000000" stroke="none"/>
</g>
<g opacity="1">
<path d="M237.338 566.493C229.736 549.389 226.489 530.425 221.361 512.475C218.287 501.718 213.952 491.441 211.47 480.521C206.293 457.741 203.565 433.795 202.341 410.527C201.717 398.678 200.985 386.672 201.58 374.769C201.707 372.224 201.201 369.441 202.341 367.161C203.386 365.07 205.575 363.642 207.666 362.596C221.887 355.486 228.359 371.928 235.055 380.855C241.773 389.812 250.024 396.585 257.88 404.441C263.066 409.627 265.204 416.717 270.053 421.939C277.172 429.607 288.458 432.737 295.92 440.198C303.553 447.832 304.49 451.986 314.94 456.936C317.197 458.005 319.482 460.94 321.788 459.979C324.008 459.054 323.309 455.415 324.07 453.132" fill="#f7f6ec" fill-rule="evenodd" stroke="none"/>
<path d="M214.156 358.906C212.946 358.905 211.735 359.05 210.562 359.344C208.618 359.831 206.753 360.666 205.031 361.688C202.665 363.091 200.604 365.033 199.812 367.75C199.269 369.617 199.392 371.582 199.375 373.5C199.363 374.894 199.222 376.264 199.156 377.656C198.592 389.624 199.187 401.634 199.688 413.594C200.496 432.909 202.272 452.162 205.75 471.188C206.374 474.6 206.976 478.017 207.719 481.406C210.369 493.501 214.963 505.06 218.188 517C220.746 526.476 222.784 536.064 225.375 545.531C227.497 553.283 229.996 560.919 233.156 568.312C234.155 570.619 236.85 571.655 239.156 570.656C241.462 569.658 242.498 566.994 241.5 564.688C233.996 547.57 230.682 529.16 225.438 511.312C222.308 500.661 217.996 490.386 215.219 479.625C213.16 471.649 211.727 463.556 210.375 455.438C208.129 441.956 206.451 428.381 205.438 414.75C204.525 402.481 203.529 390.125 203.75 377.812C203.776 376.361 203.873 374.921 203.844 373.469C203.807 371.621 203.593 369.785 204.312 368.031C204.805 366.83 206.137 365.88 207.188 365.219C208.55 364.361 210.01 363.653 211.562 363.219C219.413 361.021 224.727 368.547 228.531 374.156C229.416 375.461 230.306 376.786 231.188 378.094C232.031 379.344 232.872 380.577 233.781 381.781C238.504 388.035 244.357 393.39 250.094 398.688C252.849 401.232 255.795 403.686 258.281 406.5C261.814 410.499 263.884 415.501 267.062 419.75C268.322 421.433 269.764 423.02 271.344 424.406C276.716 429.121 283.405 431.98 289.375 435.812C290.111 436.285 290.889 436.702 291.594 437.219C292.292 437.731 292.898 438.319 293.562 438.875C295.757 440.71 297.751 442.71 299.656 444.844C301.547 446.961 303.341 449.171 305.438 451.094C308.248 453.672 311.442 455.439 314.844 457.094C316.469 457.884 317.762 459.276 319.438 459.969C320.385 460.36 321.497 460.414 322.344 459.75C323.678 458.704 323.564 456.519 323.719 455.031C323.687 455.261 323.621 455.485 323.594 455.719C323.445 456.996 323.365 458.77 322.219 459.625C320.07 461.229 317.275 458.105 315.594 457.094C315.007 456.741 314.389 456.441 313.781 456.125C310.916 454.636 308.208 452.872 305.875 450.625C303.843 448.667 302.106 446.426 300.281 444.281C298.398 442.067 296.434 440.012 294.25 438.094C293.582 437.507 292.954 436.856 292.25 436.312C291.539 435.764 290.775 435.316 290.031 434.812C284.231 430.887 277.657 427.905 272.469 423.125C266.935 418.027 264.734 410.694 259.969 405.031C257.501 402.099 254.558 399.511 251.812 396.844C246.34 391.527 240.763 386.169 236.312 379.938C235.17 378.338 234.115 376.66 233.062 375C228.757 368.211 223.384 358.919 214.156 358.906Z" fill="#000000" stroke="none"/>
</g>
<path d="M296.482 702.022C296.482 708.615 287.679 700.292 286.336 699.486C282.133 696.964 277.142 695.129 272.808 692.721C266.855 689.414 262.765 684.247 258.434 679.193C238.685 656.153 232.223 633.948 232.223 603.943C232.223 601.406 231.847 598.842 232.223 596.333C234.561 580.749 240.866 565.614 247.442 551.521C254.91 535.519 260.929 519.573 271.117 505.018C277.689 495.63 286.065 488.483 294.791 481.344C300.45 476.714 304.79 471.303 310.856 466.97C315.954 463.329 321.991 460.658 326.92 456.824C331.719 453.092 336.45 448.418 342.14 445.832C349.009 442.71 355.633 440.131 362.432 436.532C368.526 433.306 373.722 429.079 380.188 426.386C385.364 424.229 390.982 423.229 396.252 421.313C415.447 414.333 434.894 407.636 454.592 402.711C464.738 400.175 475.57 401.112 485.876 400.175C493.559 399.476 501.789 398.467 509.551 399.329C520.491 400.545 531.539 401.613 542.526 402.711C547.673 403.226 552.622 405.524 557.745 406.093C579.691 408.532 604.649 416.151 622.003 430.613C628.561 436.078 634.476 442.542 641.45 447.523C645.055 450.098 649.443 453.325 652.442 456.824C658.115 463.443 661.255 472.759 665.125 480.498C674.015 498.28 684.571 518.43 684.571 538.839C684.571 547.811 685.417 556.821 685.417 565.895C685.417 569.667 686.76 574.101 682.88 576.041" fill="none" fill-rule="evenodd" opacity="1" stroke="#000000" stroke-linecap="round" stroke-linejoin="round" stroke-width="10"/>
<path d="M253.361 514.319C250.913 516.767 248.279 514.81 246.597 511.782C245.731 510.224 245.703 508.303 244.906 506.709C241.911 500.72 237.136 495.29 234.76 488.953C232.605 483.207 229.299 477.278 227.996 471.198C225.699 460.478 226.305 449.108 226.305 438.223C226.305 429.302 227.519 419.979 234.76 414.549C254.917 399.43 266.67 432.399 274.499 444.141C277.189 448.177 280.729 451.449 283.799 455.133C288.063 460.25 291.862 467.03 294.791 472.889C295.288 473.884 296.726 477.962 298.173 477.962C298.803 477.962 298.737 476.834 299.019 476.271" fill="none" fill-rule="evenodd" opacity="1" stroke="#000000" stroke-linecap="round" stroke-linejoin="round" stroke-width="10"/>
<path d="M610.166 409.475C617.196 388.385 631.865 372.858 652.442 365.509C658.845 363.222 667.655 361.834 671.889 368.891C677.297 377.905 673.918 391.888 671.889 401.02C669.886 410.034 666.134 418.456 663.433 427.231C661.614 433.143 661.12 439.246 659.206 444.987" fill="none" fill-rule="evenodd" opacity="1" stroke="#000000" stroke-linecap="round" stroke-linejoin="round" stroke-width="10"/>
<path d="M227.15 543.066C223.271 535.308 222.197 525.873 218.695 517.701C209.921 497.228 201.049 474.71 197.557 452.596C194.978 436.26 195.021 419.214 195.021 402.711C195.021 397.349 195.201 391.968 195.866 386.647C197.241 375.649 203.501 348.844 219.541 351.135C224.907 351.902 227.61 355.247 231.378 358.745C239.439 366.231 246.663 373.628 253.361 382.419C258.708 389.438 263.156 398.133 269.426 404.402C276.925 411.902 286.392 417.141 293.945 424.695C302.638 433.387 309.794 442.975 319.311 450.905" fill="none" fill-rule="evenodd" opacity="1" stroke="#000000" stroke-linecap="round" stroke-linejoin="round" stroke-width="10"/>
<path d="M555.208 400.175C555.208 395.552 560.154 392.191 563.663 389.183C570.998 382.897 578.136 376.878 584.801 369.736C589.578 364.619 593.279 358.52 598.329 353.672C601.949 350.197 606.346 347.625 610.166 344.371C618.055 337.651 624.419 329.29 632.15 322.388C639.214 316.081 647.485 311.268 654.978 305.478C662.507 299.66 669.882 293.851 677.807 288.567C689.019 281.093 698.777 271.923 712.473 269.966C714.802 269.634 718.956 269.168 720.928 270.812C725.156 274.335 726.557 283.647 726.847 288.567C727.727 303.534 725.734 317.784 723.465 332.534C719.534 358.081 709.148 381.56 701.481 406.093C693.742 430.861 686.861 455.873 678.653 480.498C675.993 488.479 672.023 496.16 669.352 504.173" fill="none" fill-rule="evenodd" opacity="1" stroke="#000000" stroke-linecap="round" stroke-linejoin="round" stroke-width="10"/>
<path d="M307.474 543.912C305.783 543.912 303.157 545.424 302.401 543.912C301.543 542.197 309.918 540.401 312.547 539.684C314.526 539.144 316.483 538.522 318.465 537.993C330.14 534.88 341.068 532.92 353.131 532.92C356.104 532.92 358.395 532.265 360.741 534.611C363.296 537.166 359.658 543.181 358.204 545.603C354.22 552.243 348.18 557.146 343.831 563.358C341.491 566.7 339.276 570.814 337.067 574.35C335.659 576.603 328.147 588.188 336.221 582.805" fill="none" fill-rule="evenodd" opacity="1" stroke="#000000" stroke-linecap="round" stroke-linejoin="round" stroke-width="10"/>
<path d="M548.444 454.288C549.008 453.724 550.135 453.394 550.135 452.596C550.135 451.966 549.066 451.647 548.444 451.751C539.495 453.242 524.426 469.231 518.851 475.425C516.444 478.1 511.467 482.075 512.087 486.417C512.797 491.389 520 491.969 524.77 492.335C537.666 493.327 552.597 494.887 565.354 492.335" fill="none" fill-rule="evenodd" opacity="1" stroke="#000000" stroke-linecap="round" stroke-linejoin="round" stroke-width="10"/>
<path d="M446.137 624.235C446.137 611.774 451.65 587.4 468.121 585.342C478.809 584.006 481.598 592.86 485.876 600.561C486.98 602.547 488.089 604.531 489.258 606.479C489.583 607.02 489.658 608.616 490.104 608.17C492.298 605.976 479.384 592.667 476.576 592.106C468.018 590.394 462.485 599.525 458.82 605.634C457.847 607.255 456.283 608.816 456.283 610.707" fill="none" fill-rule="evenodd" opacity="1" stroke="#000000" stroke-linecap="round" stroke-linejoin="round" stroke-width="10"/>
<g opacity="1">
<path d="M254.836 515.518C251.772 505.303 245.071 497.953 241.142 488.129C238.404 481.285 239.097 479.952 237.338 472.913C236.054 467.776 233.864 462.879 232.773 457.697C231.195 450.199 231.982 442.392 232.773 434.873C233.252 430.326 233.029 425.722 233.534 421.178C233.792 418.854 233.332 415.911 235.055 414.331C236.962 412.583 240.077 412.809 242.663 412.809C250.349 412.809 255.956 418.486 260.162 424.222C266.129 432.358 269.148 442.397 274.617 450.85C275.888 452.813 277.858 454.249 279.182 456.175C283.476 462.421 286.767 469.818 289.834 476.717" fill="#ef4848" fill-rule="evenodd" stroke="none"/>
<path d="M240.625 410.781C237.892 410.746 234.766 411.112 232.938 413.406C231.332 415.421 231.491 418.025 231.25 420.438C231.076 422.176 230.839 423.88 230.719 425.625C230.513 428.617 230.418 431.617 230.031 434.594C229.051 442.129 228.019 449.795 229.188 457.375C229.995 462.613 232.097 467.518 233.312 472.656C234.082 475.907 234.416 479.229 235.062 482.5C235.553 484.983 236.28 487.443 237.25 489.781C238.63 493.108 240.225 496.319 241.969 499.469C245.122 505.163 248.58 510.634 250.5 516.906C251.259 519.302 253.823 520.603 256.219 519.844C258.614 519.084 259.947 516.552 259.188 514.156C257.89 510.186 256.148 506.446 254.094 502.812C251.842 498.83 249.235 495 247.125 490.938C245.601 488.004 244.217 484.918 243.344 481.719C242.761 479.584 242.451 477.37 241.938 475.219C241.569 473.675 241.162 472.14 240.688 470.625C239.171 465.78 237.112 461.095 236 456.125C235.148 452.318 234.94 448.424 235 444.531C235.055 440.998 235.399 437.494 235.594 433.969C235.702 432.019 235.681 430.046 235.688 428.094C235.692 426.601 235.69 425.117 235.75 423.625C235.806 422.225 235.928 420.839 235.938 419.438C235.944 418.394 235.713 416.591 236.625 415.812C238.008 414.632 240.317 414.813 242 414.781C243.318 414.756 244.58 414.783 245.875 415.062C247.706 415.458 249.459 416.242 251.031 417.25C253.2 418.64 255.071 420.428 256.781 422.344C259.199 425.053 261.291 428.071 263.094 431.219C266.033 436.349 268.384 441.789 271.344 446.906C271.978 448.002 272.675 449.05 273.344 450.125C273.799 450.855 274.229 451.563 274.781 452.219C275.793 453.42 277.002 454.409 278.031 455.594C278.682 456.343 279.262 457.218 279.812 458.031C283.785 463.893 286.824 470.334 289.844 476.719C287.11 470.17 284.372 463.569 280.656 457.5C280.108 456.605 279.556 455.699 278.906 454.875C277.94 453.65 276.763 452.614 275.812 451.375C275.084 450.425 274.583 449.322 274 448.281C273.594 447.556 273.164 446.863 272.781 446.125C270.451 441.628 268.579 436.902 266.375 432.344C263.798 427.014 260.736 421.813 256.562 417.562C253.838 414.788 250.575 412.462 246.781 411.438C244.767 410.893 242.699 410.808 240.625 410.781Z" fill="#000000" stroke="none"/>
</g>
<g opacity="1">
<path d="M613.938 412.809C621.162 399.806 628.821 386.49 639.805 376.291C641.519 374.7 643.04 372.771 645.131 371.726C647.222 370.68 649.653 370.449 651.978 370.204C654.5 369.939 657.638 368.581 659.586 370.204C661.573 371.86 660.45 375.311 661.108 377.812C663.053 385.206 664.151 390.625 664.151 398.354C664.151 407.743 665.242 418.003 663.39 427.265C661.515 436.642 658.627 446.036 656.543 455.415" fill="#ef4848" fill-rule="evenodd" stroke="none"/>
<path d="M657.812 366.656C656.166 366.508 654.391 366.819 652.719 367.062C649.897 367.473 647.041 367.364 644.344 368.438C641.887 369.415 640.015 371.149 638.125 372.938C636.919 374.079 635.694 375.19 634.5 376.344C630.752 379.963 627.31 383.827 624.188 388C618.85 395.135 614.412 402.887 609.969 410.594C608.738 412.785 609.528 415.551 611.719 416.781C613.91 418.012 616.676 417.222 617.906 415.031C622.027 407.495 626.163 399.953 631 392.844C633.682 388.902 636.526 384.989 639.75 381.469C640.846 380.272 642.028 379.195 643.156 378.031C644.088 377.07 644.961 375.975 646.031 375.156C647.509 374.026 649.365 373.688 651.156 373.406C652.056 373.265 652.955 373.14 653.844 372.938C654.5 372.788 655.155 372.613 655.812 372.469C656.137 372.397 656.481 372.324 656.812 372.281C657.221 372.229 657.525 372.252 657.875 372.375C658.121 372.573 658.234 373.544 658.25 373.781C658.265 373.999 658.271 374.188 658.281 374.406C658.309 374.983 658.307 375.29 658.344 375.875C658.397 376.73 658.49 377.578 658.719 378.406C659.044 379.582 659.421 380.731 659.75 381.906C660.775 385.572 661.611 389.275 662.031 393.062C662.492 397.207 662.525 401.401 662.781 405.562C663.174 411.947 663.631 418.403 662.875 424.781C662.361 429.117 661.384 433.43 660.438 437.688C659.125 443.594 657.736 449.476 656.531 455.406C658.084 449.558 659.809 443.755 661.469 437.938C662.68 433.691 663.939 429.414 664.719 425.062C665.945 418.218 665.79 411.206 665.812 404.281C665.831 398.713 666.142 393.17 665.438 387.625C665.147 385.341 664.742 383.068 664.281 380.812C664.012 379.493 663.574 378.122 663.438 376.781C663.158 374.028 663.984 371.439 662.156 369C660.971 367.419 659.459 366.805 657.812 366.656Z" fill="#000000" stroke="none"/>
</g>
<g opacity="1">
<path d="M152.795 1019.85C145.748 1015.93 140.84 1014.53 136.795 1006.85C133.328 1000.26 133.955 993.809 132.795 986.849C131.91 981.537 129.349 973.113 128.795 967.849C127.85 958.872 129.3 949.765 129.795 940.849C130.475 928.611 129.016 916.816 132.795 904.849C142.292 874.775 159.042 847.567 179.795 823.849C184.451 818.527 190.5 814.466 194.795 808.849C203.062 798.039 208.13 784.513 216.795 773.849C222.85 766.396 231.322 759.827 238.795 753.849C260.036 736.856 285.455 727.379 309.795 715.849C316.005 712.907 322.722 711.064 328.795 707.849C336.187 703.935 338.925 700.577 346.795 696.849C355.882 692.544 366.432 691.416 375.795 687.849C379.559 686.415 382.993 684.179 386.795 682.849C400.035 678.215 414.575 677.719 427.795 672.849C449.415 664.884 472.263 657.592 494.795 652.849C504.959 650.709 514.692 646.094 524.795 643.849C527.742 643.194 530.848 643.504 533.795 642.849C550.751 639.081 566.726 630.098 582.795 623.849C599.188 617.474 616.314 612.921 632.795 606.849C639.243 604.473 645.247 600.932 651.795 598.849C696.847 584.514 745.302 574.574 792.795 577.849C806.283 578.779 819.565 582.399 832.795 584.849C873.492 592.385 906.765 613.957 933.795 644.849C937.993 649.647 945.321 657.349 948.795 662.849C960.635 681.596 968.462 701.517 973.795 722.849C975.54 729.83 977.938 736.704 978.795 743.849C979.712 751.49 979.945 759.2 980.795 766.849C983.129 787.853 984.852 809.699 983.795 830.849C981.576 875.22 972.686 918.826 967.795 962.849" fill="#322f2f" fill-rule="evenodd" stroke="none"/>
<path d="M767.344 571.219C744.463 571.487 721.691 574.377 699.281 578.906C687.387 581.31 675.598 584.195 663.906 587.438C659.05 588.784 654.172 590.112 649.375 591.656C643.71 593.48 638.436 596.136 632.938 598.375C630.667 599.3 628.321 600.059 626 600.844C610.62 606.044 594.897 610.134 579.688 615.844C566.804 620.681 554.465 626.98 541.344 631.188C539.126 631.899 536.888 632.541 534.625 633.094C533.452 633.38 532.266 633.709 531.062 633.844C529.074 634.066 527.052 634.007 525.062 634.25C523.318 634.463 521.642 634.9 519.938 635.312C512.233 637.175 504.845 640.132 497.188 642.156C493.807 643.05 490.356 643.649 486.938 644.375C481.092 645.617 475.285 646.998 469.5 648.5C458.416 651.378 447.445 654.692 436.562 658.25C431.399 659.938 426.297 661.814 421.094 663.375C420.108 663.671 419.154 664.029 418.156 664.281C414.447 665.22 410.639 665.833 406.875 666.5C400.151 667.692 393.396 668.773 386.812 670.625C384.628 671.239 382.447 671.924 380.344 672.781C377.773 673.829 375.338 675.141 372.781 676.219C371.09 676.931 369.265 677.476 367.5 677.969C359.788 680.124 351.883 681.403 344.406 684.375C340.623 685.879 336.949 687.782 333.5 689.938C330.015 692.116 326.752 694.719 323.062 696.562C318.778 698.703 314.258 700.239 309.812 702C305.92 703.542 302.164 705.385 298.344 707.094C282.635 714.12 266.622 720.59 251.562 728.969C246.268 731.914 241.063 735.094 236.094 738.562C233.058 740.681 230.148 742.926 227.219 745.188C223.352 748.172 219.532 751.229 215.875 754.469C212.626 757.347 209.481 760.387 206.656 763.688C202.894 768.084 199.646 772.93 196.656 777.875C193.953 782.347 191.471 786.957 188.781 791.438C187.088 794.258 185.372 797.168 183.281 799.719C180.35 803.295 176.649 806.139 173.281 809.281C169.618 812.7 166.396 816.503 163.188 820.344C148.449 837.989 135.814 857.436 126.406 878.438C124.099 883.588 121.987 888.84 120.094 894.156C118.925 897.438 117.761 900.744 116.906 904.125C113.592 917.235 114.97 930.723 113.844 944.062C113.123 952.594 112.143 961.228 113.156 969.781C113.675 974.158 114.678 978.467 115.688 982.75C116.198 984.916 116.796 987.106 117.125 989.312C117.772 993.658 117.861 998.047 118.656 1002.38C119.809 1008.65 122.274 1014.65 126.094 1019.78C128.492 1023 131.452 1025.81 134.781 1028.06C138.068 1030.28 141.604 1031.99 145.062 1033.91C152.831 1038.17 162.613 1035.33 166.875 1027.56C171.137 1019.79 168.268 1010.04 160.5 1005.78C159.29 1005.12 158.099 1004.48 156.875 1003.84C155.998 1003.39 155.116 1002.94 154.25 1002.47C153.498 1002.06 152.656 1001.64 152.031 1001.03C150.129 999.17 149.837 996.134 149.562 993.656C149.375 991.967 149.222 990.283 149.031 988.594C148.797 986.521 148.503 984.452 148.094 982.406C147.398 978.929 146.479 975.48 145.656 972.031C145.072 969.58 144.517 967.114 144.344 964.594C144.06 960.471 144.337 956.331 144.656 952.219C145.016 947.58 145.431 942.965 145.562 938.312C145.803 929.793 145.006 921.031 146.75 912.625C147.335 909.805 148.288 907.064 149.219 904.344C150.784 899.77 152.548 895.248 154.469 890.812C162.018 873.383 172.104 857.136 183.875 842.25C186.68 838.702 189.497 835.058 192.688 831.844C195.14 829.373 197.795 827.122 200.281 824.688C202.429 822.585 204.462 820.37 206.312 818C211.728 811.063 215.715 803.071 219.969 795.406C221.459 792.721 222.938 790.006 224.625 787.438C225.149 786.64 225.755 785.9 226.312 785.125C227.408 783.604 228.476 782.122 229.719 780.719C233.671 776.256 238.234 772.389 242.812 768.594C245.149 766.657 247.494 764.695 249.875 762.812C263.157 752.308 278.448 744.585 293.719 737.438C298.823 735.048 303.938 732.725 309.031 730.312C311.52 729.134 313.986 727.908 316.5 726.781C320.046 725.192 323.751 723.913 327.344 722.438C331.62 720.681 335.769 718.666 339.656 716.156C342.168 714.535 344.542 712.683 347.031 711.031C349.444 709.431 351.998 708.018 354.688 706.938C359.394 705.046 364.38 703.878 369.25 702.5C372.357 701.621 375.399 700.652 378.438 699.562C380.219 698.924 381.958 698.21 383.656 697.375C385.619 696.41 387.509 695.281 389.5 694.375C391.707 693.371 394.076 692.712 396.406 692.062C405.519 689.524 414.94 688.316 424.031 685.688C425.294 685.322 426.535 684.855 427.781 684.438C432.659 682.804 437.423 680.901 442.25 679.125C449.439 676.48 456.708 673.971 464 671.625C471.249 669.293 478.542 667.126 485.906 665.188C491.419 663.737 497.033 662.646 502.5 661.031C509.215 659.048 515.678 656.315 522.375 654.281C523.534 653.929 524.707 653.663 525.875 653.344C526.423 653.194 526.946 653.021 527.5 652.938C529.511 652.633 531.548 652.672 533.562 652.375C538.142 651.701 542.857 650.097 547.219 648.562C560.504 643.89 572.885 637.151 585.906 631.844C600.772 625.785 616.231 621.34 631.281 615.781C634.463 614.606 637.634 613.416 640.719 612C645.193 609.946 649.533 607.664 654.188 606.031C659.222 604.265 664.367 602.745 669.469 601.188C680.271 597.891 691.207 594.951 702.219 592.438C723.716 587.53 745.602 584.217 767.656 583.406C776.425 583.084 785.244 583.093 794 583.719C805.639 584.551 817.024 587.329 828.469 589.438C831.228 589.946 834 590.377 836.75 590.938C842.354 592.079 847.895 593.514 853.344 595.25C871.274 600.963 888.051 609.971 903 621.375C909.814 626.573 916.239 632.235 922.312 638.281C925.676 641.629 928.868 645.118 932.062 648.625C934.767 651.594 937.521 654.532 940.156 657.562C941.429 659.027 942.715 660.506 943.875 662.062C947.996 667.592 951.389 673.733 954.562 679.844C961.774 693.728 967.042 708.443 971.094 723.531C972.632 729.261 974.586 734.918 975.719 740.75C977.273 748.749 977.412 757.063 978.312 765.156C979.168 772.846 980.115 780.543 980.812 788.25C982.012 801.507 982.713 814.812 982.344 828.125C981.655 852.977 978.561 877.752 975.312 902.375C972.655 922.522 969.926 942.634 967.781 962.844C970.451 942.235 973.714 921.72 976.906 901.188C980.664 877.017 984.226 852.703 985.469 828.25C986.152 814.81 985.778 801.326 984.875 787.906C984.311 779.523 983.378 771.187 982.719 762.812C982.117 755.166 982.072 747.42 980.781 739.844C979.762 733.865 977.935 728.04 976.5 722.156C972.693 706.545 967.617 691.291 960.531 676.844C957.335 670.326 953.904 663.767 949.688 657.844C946.098 652.802 941.804 648.257 937.75 643.594C934.554 639.918 931.341 636.235 927.969 632.719C921.788 626.275 915.217 620.21 908.25 614.625C892.081 601.664 873.73 591.46 854.031 584.969C849.07 583.334 844.028 581.952 838.938 580.781C835.054 579.888 831.143 579.165 827.25 578.312C816.554 575.971 805.892 573.308 794.969 572.25C785.806 571.363 776.545 571.111 767.344 571.219Z" fill="#000000" stroke="none"/>
</g>
<path d="M229.31 870.159C229.034 870.711 228.201 871.265 228.482 871.815C234.389 883.36 241.219 894.409 247.517 905.745C251.531 912.972 254.578 920.696 258.275 928.09C265.436 942.412 274.28 955.961 281.448 970.297C284.435 976.272 288.693 983.656 290.551 990.158C290.937 991.511 290.749 993.038 291.378 994.296" fill="#e4e2d2" fill-rule="evenodd" opacity="1" stroke="#e1d1d1" stroke-linecap="round" stroke-linejoin="round" stroke-width="10"/>
<path d="M369.999 784.091C371.863 790.615 375.963 796.282 379.102 802.298C382.941 809.655 385.214 817.729 388.205 825.47C397.246 848.868 403.276 873.203 412.205 896.642C415.378 904.971 419.046 913.109 422.136 921.469C426.568 933.463 430.465 946.334 433.722 958.71C434.966 963.438 435.935 968.286 437.86 972.779C438.252 973.694 439.004 974.409 439.515 975.262C439.833 975.791 440.493 977.516 440.343 976.917C439.92 975.225 439.239 973.607 438.688 971.952" fill="#e4e2d2" fill-rule="evenodd" opacity="1" stroke="#e1d1d1" stroke-linecap="round" stroke-linejoin="round" stroke-width="10"/>
<path d="M513.17 722.023C521.37 735.689 526.676 750.936 532.204 765.884C537.173 779.318 539.598 793.567 543.79 807.263C550.7 829.836 560.338 851.391 568.618 873.47C574.007 887.842 578.638 902.243 584.342 916.504C586.225 921.213 588.402 925.806 590.135 930.573C590.524 931.642 590.603 932.804 590.962 933.883C591.158 934.468 592.375 935.343 591.79 935.538C589.502 936.301 588.063 934.294 586.825 933.055" fill="#e4e2d2" fill-rule="evenodd" opacity="1" stroke="#e1d1d1" stroke-linecap="round" stroke-linejoin="round" stroke-width="10"/>
<path d="M712.617 663.264C712.617 677.893 718.129 691.553 721.72 705.471C726.829 725.266 733.09 745.098 737.444 765.057C744.89 799.186 747.079 835.034 757.306 868.504C760.957 880.451 765.664 892.563 772.203 903.263C774.653 907.272 777.543 910.633 779.651 914.849" fill="#e4e2d2" fill-rule="evenodd" opacity="1" stroke="#e1d1d1" stroke-linecap="round" stroke-linejoin="round" stroke-width="10"/>
<path d="M-835.656 88.1753C-841.105 88.1753-846.184 85.2192-851.163 83.0064" fill="#e4e2d2" fill-rule="evenodd" opacity="1" stroke="#e1d1d1" stroke-linecap="round" stroke-linejoin="round" stroke-width="10"/>
</g>
</svg>
